<svg xmlns="http://www.w3.org/2000/svg" version="1.1" xmlns:xlink="http://www.w3.org/1999/xlink" xmlns:svgjs="http://svgjs.dev/svgjs" width="1000" height="1088" viewBox="0 0 1000 1088"><g transform="matrix(1,0,0,1,0.6153836853510484,23.32590089964833)"><svg viewBox="0 0 227 247" data-background-color="#ffffff" preserveAspectRatio="xMidYMid meet" height="1088" width="1000" xmlns="http://www.w3.org/2000/svg" xmlns:xlink="http://www.w3.org/1999/xlink"><g id="tight-bounds" transform="matrix(1,0,0,1,-0.1396920965746915,-0.09999999999999432)"><svg viewBox="0 0 227.27938419314938 247.2" height="247.2" width="227.27938419314938"><g><svg viewBox="0 0 395.52 430.18659324116135" height="247.2" width="227.27938419314938"><g transform="matrix(1,0,0,1,0,262.7004782529322)"><svg viewBox="0 0 395.52 167.48611498822913" height="167.48611498822913" width="395.52"><g><svg viewBox="0 0 395.52 167.48611498822913" height="167.48611498822913" width="395.52"><g><svg viewBox="0 0 395.52 167.48611498822913" height="167.48611498822913" width="395.52"><g transform="matrix(1,0,0,1,0,0)"><svg width="395.52" viewBox="53.099998474121094 -36.040000915527344 186.67001342773438 75.56000518798828" height="167.48611498822913" data-palette-color="#1e0909"><svg></svg><svg></svg><g class="undefined-text-0" data-fill-palette-color="primary" id="text-0"><path xmlns="http://www.w3.org/2000/svg" d="M70.68-11.84h7.17c-0.18 4.053-1.317 7.12-3.41 9.2-2.1 2.087-5.063 3.13-8.89 3.13v0c-4.02 0-7.1-1.323-9.24-3.97-2.14-2.647-3.21-6.417-3.21-11.31v0-5.99c0-4.88 1.107-8.643 3.32-11.29 2.213-2.647 5.29-3.97 9.23-3.97v0c3.873 0 6.813 1.083 8.82 3.25 2.013 2.167 3.157 5.277 3.43 9.33v0h-7.2c-0.067-2.507-0.453-4.237-1.16-5.19-0.707-0.953-2.003-1.43-3.89-1.43v0c-1.92 0-3.28 0.673-4.08 2.02-0.8 1.34-1.223 3.547-1.27 6.62v0 6.72c0 3.533 0.393 5.957 1.18 7.27 0.793 1.32 2.15 1.98 4.07 1.98v0c1.887 0 3.187-0.46 3.9-1.38 0.72-0.92 1.13-2.583 1.23-4.99zM107.3-20.65v6.07c0 4.773-1.127 8.477-3.38 11.11-2.26 2.64-5.39 3.96-9.39 3.96v0c-3.987 0-7.12-1.307-9.4-3.92-2.28-2.613-3.437-6.27-3.47-10.97v0-6.08c0-4.887 1.133-8.7 3.4-11.44 2.26-2.747 5.4-4.12 9.42-4.12v0c3.953 0 7.07 1.35 9.35 4.05 2.28 2.693 3.437 6.473 3.47 11.34zM100.09-14.36v-6.17c0-3.207-0.453-5.593-1.36-7.16-0.913-1.56-2.33-2.34-4.25-2.34v0c-1.907 0-3.313 0.753-4.22 2.26-0.913 1.507-1.387 3.797-1.42 6.87v0 6.32c0 3.113 0.463 5.407 1.39 6.88 0.927 1.473 2.36 2.21 4.3 2.21v0c1.873 0 3.263-0.72 4.17-2.16 0.913-1.44 1.377-3.677 1.39-6.71zM119.63-35.55v29.59h12.59v5.96h-19.77v-35.55zM143.55-35.55v29.59h12.6v5.96h-19.78v-35.55zM179.64 0l-1.91-7.28h-9.79l-1.9 7.28h-7.6l11.11-35.55h6.57l11.18 35.55zM172.82-25.93l-3.32 12.67h6.64zM214.28-18.7v14.67c-1.387 1.5-3.083 2.627-5.09 3.38-2.013 0.76-4.217 1.14-6.61 1.14v0c-4.08 0-7.253-1.267-9.52-3.8-2.26-2.527-3.423-6.21-3.49-11.05v0-6.39c0-4.9 1.07-8.673 3.21-11.32 2.14-2.647 5.263-3.97 9.37-3.97v0c3.853 0 6.76 0.953 8.72 2.86 1.967 1.907 3.103 4.893 3.41 8.96v0h-6.98c-0.2-2.26-0.673-3.803-1.42-4.63-0.747-0.82-1.92-1.23-3.52-1.23v0c-1.933 0-3.34 0.71-4.22 2.13-0.88 1.413-1.337 3.667-1.37 6.76v0 6.44c0 3.24 0.487 5.597 1.46 7.07 0.967 1.473 2.557 2.21 4.77 2.21v0c1.413 0 2.56-0.283 3.44-0.85v0l0.64-0.44v-6.52h-5.03v-5.42zM237.72-21.17v5.79h-11.19v9.42h13.24v5.96h-20.41v-35.55h20.36v5.98h-13.19v8.4z" fill="#1e0909" fill-rule="nonzero" stroke="none" stroke-width="1" stroke-linecap="butt" stroke-linejoin="miter" stroke-miterlimit="10" stroke-dasharray="" stroke-dashoffset="0" font-family="none" font-weight="none" font-size="none" text-anchor="none" style="mix-blend-mode: normal" data-fill-palette-color="primary" opacity="1"></path><path xmlns="http://www.w3.org/2000/svg" d="M74.98 3.97h9.37l6.72 25.71 6.68-25.71h9.38v35.55h-7.2v-9.62l0.66-14.82-7.11 24.44h-4.88l-7.1-24.44 0.65 14.82v9.62h-7.17zM132.2 39.52l-1.9-7.28h-9.79l-1.91 7.28h-7.59l11.11-35.55h6.57l11.18 35.55zM125.39 13.59l-3.32 12.67h6.64zM159.69 39.52l-6.49-13.72-2.83 3.56v10.16h-7.18v-35.55h7.18v15.51l2.27-3.84 6.61-11.67h8.79l-10.18 15.63 10.35 19.92zM189.21 18.35v5.79h-11.18v9.42h13.23v5.96h-20.41v-35.55h20.36v5.98h-13.18v8.4zM211.5 39.52l-5.35-12.99h-3.56v12.99h-7.18v-35.55h11.45c3.6 0 6.38 0.933 8.34 2.8 1.96 1.86 2.94 4.51 2.94 7.95v0c0 4.72-1.717 8.023-5.15 9.91v0l6.22 14.55v0.34zM202.59 9.95v10.6h4.08c1.427 0 2.5-0.477 3.22-1.43 0.713-0.953 1.07-2.227 1.07-3.82v0c0-3.567-1.39-5.35-4.17-5.35v0z" fill="#1e0909" fill-rule="nonzero" stroke="none" stroke-width="1" stroke-linecap="butt" stroke-linejoin="miter" stroke-miterlimit="10" stroke-dasharray="" stroke-dashoffset="0" font-family="none" font-weight="none" font-size="none" text-anchor="none" style="mix-blend-mode: normal" data-fill-palette-color="primary" opacity="1"></path></g></svg></g></svg></g></svg></g></svg></g><g transform="matrix(1,0,0,1,75.54432,0)"><svg viewBox="0 0 244.43135999999998 244.43135999999998" height="244.43135999999998" width="244.43135999999998"><g><svg xmlns="http://www.w3.org/2000/svg" data-name="Layer 1" viewBox="1 1 28 28" x="0" y="0" height="244.43135999999998" width="244.43135999999998" class="icon-icon-0" data-fill-palette-color="accent" id="icon-0"><path d="M16 14H29V6a5.006 5.006 0 0 0-5-5H16Z" fill="#000000" data-fill-palette-color="accent"></path><path d="M14 1H6A5.006 5.006 0 0 0 1 6V24a5.006 5.006 0 0 0 5 5h8Z" fill="#000000" data-fill-palette-color="accent"></path><path d="M16 16V29h8a5.006 5.006 0 0 0 5-5V16Z" fill="#000000" data-fill-palette-color="accent"></path></svg></g></svg></g><g></g></svg></g><defs></defs></svg><rect width="227.27938419314938" height="247.2" fill="none" stroke="none" visibility="hidden"></rect></g></svg></g></svg>